<svg height="504" viewBox="0 0 544 504" width="544" xmlns="http://www.w3.org/2000/svg"><g fill="#fff" opacity=".104"><path d="m32 160 344 8-376-168z" transform="matrix(0 1 -1 0 520 88)"/><path d="m930 319-16-24-248 48-8 448 80-40-8-360 176-16z" transform="translate(-386 -287)"/><path d="m256 0v48h-248l-8-8z" transform="matrix(-1 0 0 -1 528 48)"/><path d="m32 8 344-8-376 168z" transform="matrix(0 1 -1 0 192 88)"/><path d="m658 319 16-24 248 48 8 448-80-40 8-360-176-16z" transform="translate(-658 -287)"/><path d="m256 48v-48h-248l-8 8z" transform="translate(16)"/></g></svg>