<?xml version="1.0" standalone="no"?>
<!DOCTYPE svg PUBLIC "-//W3C//DTD SVG 20010904//EN"
 "http://www.w3.org/TR/2001/REC-SVG-20010904/DTD/svg10.dtd">
<svg version="1.0" xmlns="http://www.w3.org/2000/svg"
 width="260.000000pt" height="260.000000pt" viewBox="0 0 260.000000 260.000000"
 preserveAspectRatio="xMidYMid meet">
<metadata>
Created by potrace 1.14, written by Peter Selinger 2001-2017
</metadata>
<g transform="translate(0.000000,260.000000) scale(0.100000,-0.100000)"
fill="#000000" stroke="none">
<path d="M93 2478 c-11 -13 -37 -47 -57 -76 l-36 -52 41 -98 c44 -104 210
-481 252 -572 14 -30 109 -244 212 -475 103 -231 238 -532 299 -670 l112 -250
192 -98 192 -97 192 97 c144 73 193 102 192 115 -1 10 1 16 5 14 3 -2 31 50
61 117 115 259 368 825 394 880 14 32 26 59 26 61 0 3 16 39 36 83 73 159 256
571 332 748 l61 140 -22 38 c-12 22 -37 57 -55 78 l-34 39 -1187 0 -1188 0
-20 -22z m253 -57 c27 -5 69 -12 94 -16 25 -3 101 -15 170 -26 69 -11 136 -22
150 -24 14 -2 84 -13 155 -25 72 -11 144 -23 160 -25 17 -2 44 -6 60 -9 17 -2
48 -7 70 -10 22 -4 52 -9 66 -11 14 -3 86 4 160 15 228 36 323 51 349 55 14 2
39 6 55 9 17 3 48 7 70 11 23 3 52 8 65 10 14 3 45 8 70 11 25 3 54 8 65 10
11 3 36 7 55 9 19 3 44 8 56 10 39 8 129 17 124 12 -3 -3 -23 -7 -45 -11 -53
-7 -94 -15 -125 -22 -14 -3 -36 -8 -50 -10 -14 -3 -104 -20 -200 -39 -233 -45
-475 -91 -527 -100 -24 -4 -46 -11 -49 -16 -6 -10 -8 -89 -19 -739 -4 -217 -9
-465 -10 -550 -2 -85 -4 -253 -6 -372 -2 -120 -6 -218 -9 -218 -3 0 -7 96 -9
213 -1 116 -4 293 -6 392 -2 99 -6 344 -10 545 -11 630 -13 722 -22 731 -4 4
-24 10 -43 13 -19 3 -105 19 -190 35 -85 17 -166 32 -180 35 -14 2 -93 18
-176 35 -82 16 -166 33 -185 36 -39 7 -175 32 -204 38 -43 10 21 7 71 -2z
m2080 -350 c-3 -4 -25 -11 -48 -14 -24 -3 -56 -9 -73 -12 -16 -3 -109 -22
-205 -42 -96 -19 -184 -37 -195 -39 -11 -2 -56 -11 -99 -19 -44 -8 -81 -17
-82 -18 -3 -3 -10 -224 -20 -687 -4 -168 -8 -341 -9 -385 -2 -44 -3 -149 -4
-234 -1 -85 -4 -152 -7 -148 -4 3 -8 68 -9 144 -5 219 -17 736 -20 878 -11
419 -10 508 5 510 8 2 53 6 100 9 47 4 103 9 125 11 22 3 74 7 115 10 41 3 94
7 118 10 102 12 132 15 212 21 47 3 87 8 89 10 8 7 12 4 7 -5z m-2041 -16 c17
-2 62 -7 100 -10 130 -10 190 -15 230 -20 22 -2 72 -7 110 -10 39 -3 84 -8
101 -10 l30 -5 -2 -63 c-1 -34 -5 -192 -8 -352 -3 -159 -9 -407 -12 -550 -3
-143 -7 -315 -8 -383 -2 -67 -6 -125 -9 -129 -4 -3 -7 45 -8 108 -1 63 -2 161
-4 219 -2 58 -6 247 -10 420 -4 173 -9 360 -10 415 -2 55 -4 132 -4 171 l-1
71 -332 66 c-183 36 -342 68 -353 71 -21 5 140 -2 190 -9z m536 -1592 c-9 -15
-10 -12 -10 17 0 29 1 32 10 18 7 -12 7 -24 0 -35z m389 -163 c0 -5 -5 -10
-11 -10 -5 0 -7 5 -4 10 3 6 8 10 11 10 2 0 4 -4 4 -10z"/>
</g>
</svg>
